<svg width="256" height="256" viewBox="0 0 256 256" xmlns="http://www.w3.org/2000/svg">
    <!-- Background -->
    
    <rect width="256" height="256" rx="60" fill="#FFD500" />
    
    <!-- 'COGNEX' Text -->
    <!-- 'COGNEX' Typography Paths -->
    <g transform="translate(-30,-50) scale(0.43)">
        <path d="m 123.75,400.69218 c 0,17.415 9.8075,21.52 26.28875,21.52 l 29.50375,0 c 18.3775,0 22.00375,-7.8825 22.00375,-17.9025 l 0,-5.585 -18.29625,0 c 0,7.39125 -2.47125,8.21125 -10.7125,8.21125 l -19.53125,0 c -8.65375,0 -10.46625,-3.28375 -10.46625,-11.90875 l 0,-6.4075 c 0,-7.39125 1.8125,-11.90875 11.455,-11.90875 l 19.9425,0 c 5.44,0 8.5725,1.23125 8.5725,5.5025 l 0,1.6425 18.29375,0 c 0.16625,-16.8375 -3.21375,-22.4225 -29.255,-22.4225 l -21.51,0 c -16.48125,0 -26.28875,4.1075 -26.28875,21.52 l 0,17.73875" fill="#000000"/>
        <path d="m 205.048,400.69218 0,-17.73875 c 0,-17.4125 9.80625,-21.52 26.2875,-21.52 l 29.3375,0 c 16.48375,0 26.29125,4.1075 26.29125,21.52 l 0,17.73875 c 0,17.415 -9.8075,21.52 -26.29125,21.52 l -29.3375,0 c -16.48125,0 -26.2875,-4.105 -26.2875,-21.52 z m 18.78875,-12.0725 0,6.4075 c 0,8.625 1.81375,11.90875 10.46625,11.90875 l 23.405,0 c 8.6525,0 10.46625,-3.28375 10.46625,-11.90875 l 0,-6.4075 c 0,-7.39125 -1.81375,-11.90875 -11.455,-11.90875 l -21.42625,0 c -9.6425,0 -11.45625,4.5175 -11.45625,11.90875" fill="#000000"/>
        <path d="m 290.798,400.69218 c 0,17.415 9.80625,21.52 26.28875,21.52 l 22.0025,0 c 20.60375,0 29.505,-0.81875 29.505,-17.9025 l 0,-16.92125 -41.04125,0 0,12.32 22.745,0 0,1.72375 c 0,5.75 -4.78,6.49 -9.55875,6.49 l -19.5325,0 c -9.23,0 -11.62,-2.22 -11.62,-12.4025 l 0,-7.3925 c 0,-10.185 2.39,-12.4025 11.62,-12.4025 l 19.86125,0 c 5.8525,0 9.23,0.74 9.23,6.6525 l 17.96625,0 0,-1.88875 c 0,-11.58125 -2.885,-19.055 -23.6525,-19.055 l -27.525,0 c -16.4825,0 -26.28875,4.1075 -26.28875,21.52 l 0,17.73875" fill="#000000"/>
        <path d="m 373.191,421.55618 18.29375,0 0,-43.20375 0.1675,0 34.36375,43.20375 28.34875,0 0,-59.46625 -18.29625,0 0,43.20125 -0.1625,0 -34.36625,-43.20125 -28.34875,0 0,59.46625" fill="#000000"/>
        <path d="m 461.229,421.55618 66.34,0 0,-14.29125 -48.04625,0 0,-9.5275 44.50375,0 0,-12.32125 -44.50375,0 0,-9.5275 46.97625,0 0,-13.79875 -65.27,0 0,59.46625" fill="#000000"/>
        <path d="m 530.089,421.55618 24.56125,0 19.69625,-21.60125 19.6975,21.60125 24.55625,0 -29.2575,-29.815 27.19875,-29.65125 -23.6525,0 -18.5425,20.78 -18.54125,-20.78 -23.65375,0 27.195,29.65125 -29.2575,29.815" fill="#000000"/>
    </g>
</svg>
